<svg width="1em" height="1em" viewBox="0 0 32 32" fill="none" xmlns="http://www.w3.org/2000/svg">
<g clip-path="url(#clip0_2557_23660)">
<path d="M9.14038 8.25177H3.53919C3.45719 8.25173 3.37619 8.23372 3.30188 8.19901C3.22758 8.16431 3.16179 8.11375 3.10912 8.05089C3.05646 7.98803 3.01819 7.91439 2.99703 7.83516C2.97587 7.75593 2.97234 7.67303 2.98665 7.59228L3.87785 2.44561C3.90079 2.32052 3.96685 2.20742 4.06455 2.12601C4.16225 2.04459 4.2854 2.00001 4.41258 2.00001H10.2054L9.14038 8.25177Z" fill="currentColor"/>
<path d="M13.0301 21.4727H6.77832L9.11772 8.2473H15.3695L13.0301 21.4727Z" fill="currentColor"/>
<path d="M11.4707 27.7245H6.34183C6.26051 27.7236 6.18034 27.7051 6.10678 27.6704C6.03322 27.6358 5.96801 27.5856 5.91557 27.5235C5.86313 27.4613 5.82471 27.3886 5.80292 27.3102C5.78113 27.2319 5.77648 27.1497 5.78929 27.0694L6.78297 21.4861H13.0214L11.9965 27.2789C11.9738 27.4025 11.9091 27.5144 11.8132 27.5956C11.7174 27.6769 11.5963 27.7224 11.4707 27.7245Z" fill="currentColor"/>
<path d="M26.666 8.25176H9.14062L10.2457 2.01337H27.5795C27.6613 2.01417 27.7419 2.03268 27.8158 2.06763C27.8898 2.10258 27.9552 2.15313 28.0077 2.21581C28.0603 2.27849 28.0986 2.35179 28.12 2.43069C28.1415 2.50959 28.1456 2.59221 28.1321 2.67285L27.2186 7.81953C27.1941 7.94607 27.1246 8.0595 27.0231 8.13892C26.9216 8.21834 26.7948 8.25841 26.666 8.25176V8.25176Z" fill="currentColor"/>
</g>
<defs>
<clipPath id="clip0_2557_23660">
<rect width="25.1407" height="25.72" fill="white" transform="translate(2.97754 2)"/>
</clipPath>
</defs>
</svg>
