<svg xmlns="http://www.w3.org/2000/svg" viewBox="0 0 64 64" role="img" aria-label="Chrome browser">
  <circle cx="32" cy="32" r="30" fill="#fbbc04"/>
  <path fill="#ea4335" d="M32 2a30 30 0 0 1 26 15H32a15 15 0 0 0-13 7.5L8 12A30 30 0 0 1 32 2Z"/>
  <path fill="#34a853" d="M58 17A30 30 0 0 1 32 62l13-22.5A15 15 0 0 0 32 17h26Z"/>
  <path fill="#4285f4" d="M45 39.5 32 62A30 30 0 0 1 8 12l13 22.5A15 15 0 0 0 45 39.5Z"/>
  <circle cx="32" cy="32" r="13" fill="#fff"/>
  <circle cx="32" cy="32" r="9" fill="#4285f4"/>
</svg>
